{"title":"Very Young Virgin Teen with perfect Pink nippled tits and small","uid":7111277,"size":115524072,"categoryP":"porn","categoryS":"other","magnet":"?xt=urn:btih:30e4c0496b2dbfa18e86d2fa7481ba69d39684e5&amp;dn=Very+Young+Virgin+Teen+with+perfect+Pink+nippled+tits+and+small+&amp;tr=udp%3A%2F%2Ftracker.openbittorrent.com%3A80&amp;tr=udp%3A%2F%2Fopen.demonii.com%3A1337&amp;tr=udp%3A%2F%2Ftracker.coppersurfer.tk%3A6969&amp;tr=udp%3A%2F%2Fexodus.desync.com%3A6969","seeders":7,"leechers":2,"uploader":"Devdeep","files":3,"time":1332044683,"description":"Very Young Virgin Teen with perfect Pink nippled tits and small tight bald pussy gets savagely Ra\n\n\n\n\n\nFile info..........\n \nFormat                           : MPEG-PS\nFile size                        : 110 MiB\nDuration                         : 1mn 22s\nOverall bit rate                 : 11.2 Mbps\n\nVideo\nID                               : 224 (0xE0)\nFormat                           : MPEG Video\nFormat version                   : Version 1\nFormat settings, BVOP            : Yes\nFormat settings, Matrix          : Default\nDuration                         : 1mn 22s\nBit rate mode                    : Constant\nBit rate                         : 10.8 Mbps\nNominal bit rate                 : 512 Kbps\nWidth                            : 352 pixels\nHeight                           : 288 pixels\nDisplay aspect ratio             : 4:3\nFrame rate                       : 25.000 fps\nStandard                         : PAL\nColor space                      : YUV\nBit depth                        : 8 bits\nScan type                        : Progressive\nCompression mode                 : Lossy\nBits/(Pixel*Frame)               : 4.251\nStream size                      : 106 MiB (96%)\n\nAudio\nID                               : 192 (0xC0)\nFormat                           : MPEG Audio\nFormat version                   : Version 1\nFormat profile                   : Layer 2\nDuration                         : 1mn 22s\nBit rate mode                    : Constant\nBit rate                         : 192 Kbps\nChannel(s)                       : 1 channel\nSampling rate                    : 32.0 KHz\nCompression mode                 : Lossy\nDelay relative to video          : 8ms\nStream size                      : 1.89 MiB (2%)\n\n\n\nScreens...............\n\n\n &lt;a href=&quot;\nhttp://picturestack.com/39/158/1ydvlcsnap20104W.png&quot; rel=&quot;nofollow&quot; target=&quot;_NEW&quot;&gt;\nhttp://picturestack.com/39/158/1ydvlcsnap20104W.png&lt;/a&gt; &lt;a href=&quot;\nhttp://picturestack.com/39/158/shGvlcsnap201GDY.png&quot; rel=&quot;nofollow&quot; target=&quot;_NEW&quot;&gt;\nhttp://picturestack.com/39/158/shGvlcsnap201GDY.png&lt;/a&gt; &lt;a href=&quot;\nhttp://picturestack.com/39/158/sJwvlcsnap201ICw.png&quot; rel=&quot;nofollow&quot; target=&quot;_NEW&quot;&gt;\nhttp://picturestack.com/39/158/sJwvlcsnap201ICw.png&lt;/a&gt; &lt;a href=&quot;\nhttp://picturestack.com/39/158/Ivjvlcsnap201tvU.png&quot; rel=&quot;nofollow&quot; target=&quot;_NEW&quot;&gt;\nhttp://picturestack.com/39/158/Ivjvlcsnap201tvU.png&lt;/a&gt; &lt;a href=&quot;\nhttp://picturestack.com/39/158/ajLvlcsnap201Fhu.png&quot; rel=&quot;nofollow&quot; target=&quot;_NEW&quot;&gt;\nhttp://picturestack.com/39/158/ajLvlcsnap201Fhu.png&lt;/a&gt; &lt;a href=&quot;\nhttp://picturestack.com/39/158/7kNvlcsnap201dcb.png&quot; rel=&quot;nofollow&quot; target=&quot;_NEW&quot;&gt;\nhttp://picturestack.com/39/158/7kNvlcsnap201dcb.png&lt;/a&gt; &lt;a href=&quot;\nhttp://picturestack.com/39/158/7IYvlcsnap201E61.png&quot; rel=&quot;nofollow&quot; target=&quot;_NEW&quot;&gt;\nhttp://picturestack.com/39/158/7IYvlcsnap201E61.png&lt;/a&gt; &lt;a href=&quot;\nhttp://picturestack.com/39/158/WzUvlcsnap201utS.png&quot; rel=&quot;nofollow&quot; target=&quot;_NEW&quot;&gt;\nhttp://picturestack.com/39/158/WzUvlcsnap201utS.png&lt;/a&gt; &lt;a href=&quot;\nhttp://picturestack.com/39/158/scQvlcsnap2016bK.png&quot; rel=&quot;nofollow&quot; target=&quot;_NEW&quot;&gt;\nhttp://picturestack.com/39/158/scQvlcsnap2016bK.png&lt;/a&gt; &lt;a href=&quot;\nhttp://picturestack.com/39/158/agWvlcsnap20135g.png&quot; rel=&quot;nofollow&quot; target=&quot;_NEW&quot;&gt;\nhttp://picturestack.com/39/158/agWvlcsnap20135g.png&lt;/a&gt; &lt;a href=&quot;\nhttp://picturestack.com/39/378/5ZNvlcsnap2019T0.png&quot; rel=&quot;nofollow&quot; target=&quot;_NEW&quot;&gt;\nhttp://picturestack.com/39/378/5ZNvlcsnap2019T0.png&lt;/a&gt;\n","torrent":{"xt":"urn:btih:30e4c0496b2dbfa18e86d2fa7481ba69d39684e5","amp;dn":"Very+Young+Virgin+Teen+with+perfect+Pink+nippled+tits+and+small+","amp;tr":["udp%3A%2F%2Ftracker.openbittorrent.com%3A80","udp%3A%2F%2Fopen.demonii.com%3A1337","udp%3A%2F%2Ftracker.coppersurfer.tk%3A6969","udp%3A%2F%2Fexodus.desync.com%3A6969"],"infoHash":"30e4c0496b2dbfa18e86d2fa7481ba69d39684e5","infoHashBuffer":{"type":"Buffer","data":[48,228,192,73,107,45,191,161,142,134,210,250,116,129,186,105,211,150,132,229]},"announce":[],"urlList":[]}}